<svg width="18" height="18" viewBox="0 0 22 22" class="icon_svg">
<path d="M11 22a3 3 0 0 1-2.12-.88l-8-8a3 3 0 0 1 0-4.24l8-8a3 3 0 0 1 4.24 0l8 8a3 3 0 0 1 0 4.24l-8 8A3 3 0 0 1 11 22Zm0-20a1 1 0 0 0-.71.29l-8 8a1 1 0 0 0 0 1.42l8 8a1 1 0 0 0 1.42 0l8-8a1 1 0 0 0 0-1.42l-8-8A1 1 0 0 0 11 2Zm4.85 8.15a.48.48 0 0 1 0 .66l-3 3a.47.47 0 0 1-.35.15.43.43 0 0 1-.19 0 .5.5 0 0 1-.31-.46v-2.05a1 1 0 0 1-.25.05h-2a1 1 0 0 0-1 1v1a1 1 0 1 1-2 0v-1a3 3 0 0 1 3-3h2a1 1 0 0 1 .25.05V7.5a.5.5 0 0 1 .31-.5.47.47 0 0 1 .54.15l3 3Z"></path>
</svg>