<svg viewBox="0 0 24 24" fill="none" xmlns="http://www.w3.org/2000/svg">
    <path
        d="M13.1826 12.4987L14.9372 14.5307L17.2975 16.0577L17.7074 12.5119L17.2975 9.04678L14.8915 10.3887L13.1826 12.4987Z"
        fill="#00832D"></path>
    <path
        d="M3 15.727V18.7493C3 19.0807 3.12993 19.3987 3.36126 19.6332C3.59258 19.8677 3.90637 19.9996 4.23368 19.9999H7.21801L7.83028 17.7154L7.21278 15.7323L5.17101 15.1017L3 15.727Z"
        fill="#0066DA"></path>
    <path d="M7.21801 5L3 9.27158L5.17101 9.89559L7.21801 9.27158L7.82375 7.30964L7.21801 5Z"
        fill="#E94235"></path>
    <path d="M7.21801 9.27148H3V15.7298H7.21801V9.27148Z" fill="#2684FC"></path>
    <path
        d="M19.9908 6.80857L17.2976 9.04682V16.0537L20.0026 18.3012C20.0937 18.3733 20.2029 18.4179 20.3179 18.4302C20.4328 18.4424 20.5489 18.4217 20.6528 18.3705C20.7567 18.3193 20.8443 18.2395 20.9057 18.1403C20.9671 18.0411 20.9997 17.9265 21 17.8094V7.29113C20.9998 7.17276 20.9664 7.05687 20.9038 6.95693C20.8412 6.85699 20.7518 6.77711 20.6461 6.72657C20.5404 6.67603 20.4227 6.65691 20.3067 6.67142C20.1907 6.68594 20.0812 6.7335 19.9908 6.80857Z"
        fill="#00AC47"></path>
    <path
        d="M13.1828 12.4987V15.7272H7.21802V19.9987H16.0626C16.3901 19.9984 16.704 19.8665 16.9355 19.632C17.1671 19.3976 17.2973 19.0797 17.2976 18.7481V16.0577L13.1828 12.4987Z"
        fill="#00AC47"></path>
    <path
        d="M16.0626 5H7.21802V9.27158H13.1828V12.4987L17.2976 9.04683V6.24935C17.2973 5.91788 17.167 5.60011 16.9355 5.36584C16.7039 5.13158 16.39 5 16.0626 5"
        fill="#FFBA00"></path>
</svg>