<svg class="" aria-hidden="true" viewBox="0 0 24 24" fill="none"
    xmlns="http://www.w3.org/2000/svg">
    <path
        d="M11.6078 6.94336C13.1128 6.94336 14.1281 7.59347 14.7069 8.13671L16.9689 5.92813C15.5797 4.63683 13.7718 3.84424 11.6078 3.84424C8.47306 3.84424 5.76577 5.64316 4.44775 8.26138L7.03926 10.274C7.68937 8.34153 9.48829 6.94336 11.6078 6.94336Z"
        fill="#EA4335"></path>
    <path
        d="M19.3028 12.0373C19.3028 11.3783 19.2493 10.8974 19.1336 10.3987H11.6084V13.3731H16.0255C15.9365 14.1123 15.4556 15.2255 14.3869 15.9735L16.9161 17.9328C18.43 16.5346 19.3028 14.4774 19.3028 12.0373Z"
        fill="#4285F4"></path>
    <path
        d="M7.04812 13.4445C6.87892 12.9458 6.78096 12.4115 6.78096 11.8593C6.78096 11.3072 6.87892 10.7728 7.03922 10.2741L4.4477 8.26147C3.90447 9.34795 3.59277 10.568 3.59277 11.8593C3.59277 13.1506 3.90447 14.3707 4.4477 15.4571L7.04812 13.4445Z"
        fill="#FBBC05"></path>
    <path
        d="M11.6082 19.874C13.7722 19.874 15.5889 19.1616 16.9159 17.9326L14.3867 15.9734C13.7099 16.4454 12.8015 16.7749 11.6082 16.7749C9.48866 16.7749 7.68974 15.3767 7.04854 13.4442L4.45703 15.4569C5.77505 18.0751 8.47343 19.874 11.6082 19.874Z"
        fill="#34A853"></path>
</svg>