<svg height="98" viewBox="0 0 98 98" width="98" xmlns="http://www.w3.org/2000/svg"><path d="m77.985 56v-38h-22v.85 37.15h-2v-37.15-1.85-15h-22v27.082l3.739 9.123c.163.404.114.861-.129 1.223-.242.357-.644.572-1.075.572h-2.535v16h-2v-16h-24v16h-2v-16h-2.67c-.429 0-.829-.213-1.072-.568-.245-.358-.295-.813-.137-1.215l3.761-9.391c.196-.502.671-.826 1.209-.826h24.909v-27c0-.552.448-1 1-1h24c.552 0 1 .448 1 1v15h23c.552 0 1 .448 1 1v39zm-47.788-26h-24.643l-3.215 8h31.147zm-17.212 14h10c.552 0 1 .448 1 1v11h-2v-10h-8v10h-2v-11c0-.552.448-1 1-1zm28-32h-6c-.552 0-1-.448-1-1v-6c0-.552.448-1 1-1h6c.552 0 1 .448 1 1v6c0 .552-.448 1-1 1zm-1-6h-4v4h4zm-6 15v-6c0-.552.448-1 1-1h6c.552 0 1 .448 1 1v6c0 .552-.448 1-1 1h-6c-.552 0-1-.448-1-1zm2-1h4v-4h-4zm9-16h6c.552 0 1 .448 1 1v6c0 .552-.448 1-1 1h-6c-.552 0-1-.448-1-1v-6c0-.552.448-1 1-1zm1 6h4v-4h-4zm-1 4h6c.552 0 1 .448 1 1v6c0 .552-.448 1-1 1h-6c-.552 0-1-.448-1-1v-6c0-.552.448-1 1-1zm1 6h4v-4h-4zm13 0h6c.552 0 1 .448 1 1v6c0 .552-.448 1-1 1h-6c-.552 0-1-.448-1-1v-6c0-.552.448-1 1-1zm1 6h4v-4h-4zm9-6h6c.552 0 1 .448 1 1v6c0 .552-.448 1-1 1h-6c-.552 0-1-.448-1-1v-6c0-.552.448-1 1-1zm1 6h4v-4h-4z" fill="#cccbcb" transform="translate(8 23)"/><path d="m0 0h100v2h-100z" fill="#fc0" transform="translate(0 79)"/></svg>